<svg xmlns="http://www.w3.org/2000/svg" viewBox="0 0 60 60"><defs><filter id="lea" x="-20%" y="-20%" width="140%" height="145%"><feTurbulence type="fractalNoise" baseFrequency="2.2" numOctaves="1" seed="9" result="t"/><feColorMatrix in="t" values="0 0 0 .1 .9  0 0 0 .1 .9  0 0 0 .1 .9  0 0 0 0 1" result="g"/><feBlend in="SourceGraphic" in2="g" mode="multiply" result="m"/><feComposite in="m" in2="SourceAlpha" operator="in" result="tex"/><feGaussianBlur in="SourceAlpha" stdDeviation="1.7"/><feOffset dx=".8" dy="2.2"/><feComponentTransfer><feFuncA type="linear" slope=".42"/></feComponentTransfer><feMerge><feMergeNode/><feMergeNode in="tex"/></feMerge></filter><filter id="soft" x="-20%" y="-50%" width="140%" height="200%"><feGaussianBlur stdDeviation=".9"/></filter><linearGradient id="shell" x1="0" y1="0" x2="0" y2="1"><stop offset="0" stop-color="#5a3119"/><stop offset=".3" stop-color="#7c4526"/><stop offset="1" stop-color="#6a3a1f"/></linearGradient><linearGradient id="arm" x1="0" y1="0" x2="1" y2="0"><stop offset="0" stop-color="#6b3b1f"/><stop offset=".45" stop-color="#a8683d"/><stop offset=".6" stop-color="#b87a4c"/><stop offset="1" stop-color="#70401f"/></linearGradient><radialGradient id="seat" cx=".42" cy=".38" r=".75"><stop offset="0" stop-color="#c68a5a"/><stop offset=".55" stop-color="#a0612f"/><stop offset="1" stop-color="#7a4523"/></radialGradient><radialGradient id="shine" cx=".38" cy=".3" r=".4"><stop offset="0" stop-color="#fff" stop-opacity=".2"/><stop offset="1" stop-color="#fff" stop-opacity="0"/></radialGradient></defs><g filter="url(#lea)"><path d="M6 4h48q4 0 4 4v46q0 4-4 4H6q-4 0-4-4V8q0-4 4-4z" fill="url(#shell)"/><rect x="2.5" y="8" width="12" height="49" rx="6" fill="url(#arm)"/><rect x="45.5" y="8" width="12" height="49" rx="6" fill="url(#arm)"/><rect x="14.5" y="15.5" width="31" height="39.5" rx="6.5" fill="url(#seat)"/></g><rect x="14.5" y="15.5" width="31" height="39.5" rx="6.5" fill="url(#shine)"/><g fill="none" stroke-linecap="round"><path d="M17 18.5Q30 16.4 43 18.5" stroke="#3b1e0d" stroke-opacity=".4" stroke-width="1.6" filter="url(#soft)"/><rect x="15.3" y="16.3" width="29.4" height="37.9" rx="5.8" stroke="#e8b98e" stroke-opacity=".35" stroke-width=".5"/><path d="M8.5 11v43M51.5 11v43" stroke="#f3c79c" stroke-opacity=".22" stroke-width="1.2"/><path d="M10 6.8h40" stroke="#e0a676" stroke-opacity=".25" stroke-width=".8"/></g></svg>
