<svg xmlns="http://www.w3.org/2000/svg" viewBox="0 0 120 280"><defs><linearGradient id="g53" x1="0" y1="0" x2="1" y2="1"><stop offset="0" stop-color="#e4e8ec"/><stop offset="1" stop-color="#b3bcc5"/></linearGradient><pattern id="t" width="12" height="12" patternUnits="userSpaceOnUse"><rect width="12" height="12" fill="#d9d4cb"/><path d="M0 0H12V12" fill="none" stroke="#b8b1a5" stroke-width=".6"/></pattern></defs><rect width="120" height="280" fill="url(#t)"/><rect x="4" y="4" width="40" height="190" fill="url(#g53)" stroke="#8c96a1"/><rect x="7" y="10" width="34" height="78" rx="1.5" fill="#26292d"/><circle cx="15.5" cy="23" r="6" fill="none" stroke="#5d646c" stroke-width="1.5"/><circle cx="15.5" cy="23" r="2.3" fill="#3a3f45" stroke="#6f7780" stroke-width=".6"/><path d="M8 23H23M15.5 12V34" stroke="#111" stroke-width="1.8"/><circle cx="32.5" cy="23" r="6" fill="none" stroke="#5d646c" stroke-width="1.5"/><circle cx="32.5" cy="23" r="2.3" fill="#3a3f45" stroke="#6f7780" stroke-width=".6"/><path d="M25 23H40M32.5 12V34" stroke="#111" stroke-width="1.8"/><circle cx="15.5" cy="49" r="6" fill="none" stroke="#5d646c" stroke-width="1.5"/><circle cx="15.5" cy="49" r="2.3" fill="#3a3f45" stroke="#6f7780" stroke-width=".6"/><path d="M8 49H23M15.5 38V60" stroke="#111" stroke-width="1.8"/><circle cx="32.5" cy="49" r="6" fill="none" stroke="#5d646c" stroke-width="1.5"/><circle cx="32.5" cy="49" r="2.3" fill="#3a3f45" stroke="#6f7780" stroke-width=".6"/><path d="M25 49H40M32.5 38V60" stroke="#111" stroke-width="1.8"/><circle cx="15.5" cy="75" r="6" fill="none" stroke="#5d646c" stroke-width="1.5"/><circle cx="15.5" cy="75" r="2.3" fill="#3a3f45" stroke="#6f7780" stroke-width=".6"/><path d="M8 75H23M15.5 64V86" stroke="#111" stroke-width="1.8"/><circle cx="32.5" cy="75" r="6" fill="none" stroke="#5d646c" stroke-width="1.5"/><circle cx="32.5" cy="75" r="2.3" fill="#3a3f45" stroke="#6f7780" stroke-width=".6"/><path d="M25 75H40M32.5 64V86" stroke="#111" stroke-width="1.8"/><rect x="7" y="92" width="34" height="44" rx="1.5" fill="#2e3237"/><rect x="10" y="95" width="28" height="38" fill="#4a5058"/><path d="M13 98L35 130" stroke="#fff" stroke-opacity=".12" stroke-width="5"/><rect x="7" y="140" width="34" height="22" rx="1.5" fill="#3a3f45"/><rect x="10" y="143" width="28" height="16" fill="#a07a2a" fill-opacity=".85"/><path d="M10 147H38M10 151H38M10 155H38M15 143V159M20 143V159M25 143V159M30 143V159M35 143V159" stroke="#2a2a2a" stroke-width=".5"/><rect x="7" y="165" width="34" height="22" rx="1.5" fill="#3a3f45"/><rect x="10" y="168" width="28" height="16" fill="#a07a2a" fill-opacity=".85"/><path d="M10 172H38M10 176H38M10 180H38M15 168V184M20 168V184M25 168V184M30 168V184M35 168V184" stroke="#2a2a2a" stroke-width=".5"/><rect x="4" y="7" width="48" height="184" fill="none" stroke="#4e5761" stroke-width="1" stroke-dasharray="4 3"/><rect x="80" y="4" width="36" height="60" fill="url(#g53)" stroke="#8c96a1"/><rect x="86" y="8" width="24" height="24" rx="3" fill="#9aa4ae" stroke="#8c96a1"/><rect x="88" y="10" width="20" height="20" rx="2.5" fill="#b9c2ca"/><circle cx="98" cy="20" r="1.8" fill="#6f7780"/><rect x="86" y="35" width="24" height="24" rx="3" fill="#9aa4ae" stroke="#8c96a1"/><rect x="88" y="37" width="20" height="20" rx="2.5" fill="#b9c2ca"/><circle cx="98" cy="47" r="1.8" fill="#6f7780"/><path d="M112 34H117M117 32V36" stroke="#6f7780" stroke-width="1.6" stroke-linecap="round"/><rect x="84" y="70" width="32" height="32" fill="url(#g53)" stroke="#8c96a1"/><path d="M100 70V102" stroke="#8c96a1"/><rect x="97" y="74" width="1.6" height="10" fill="#5d646c"/><rect x="101.4" y="74" width="1.6" height="10" fill="#5d646c"/><rect x="84" y="104" width="32" height="32" fill="url(#g53)" stroke="#8c96a1"/><path d="M100 104V136" stroke="#8c96a1"/><rect x="97" y="108" width="1.6" height="10" fill="#5d646c"/><rect x="101.4" y="108" width="1.6" height="10" fill="#5d646c"/><rect x="84" y="138" width="32" height="32" fill="url(#g53)" stroke="#8c96a1"/><path d="M100 138V170" stroke="#8c96a1"/><rect x="97" y="142" width="1.6" height="10" fill="#5d646c"/><rect x="101.4" y="142" width="1.6" height="10" fill="#5d646c"/><rect x="56" y="178" width="60" height="44" rx="2" fill="url(#g53)" stroke="#8c96a1"/><rect x="61" y="183" width="24" height="16" rx="2" fill="#dcc79a" stroke="#b39a66"/><rect x="61" y="202" width="24" height="15" rx="2" fill="#f2f2ef" stroke="#c9c9c3"/><rect x="89" y="183" width="11" height="15" rx="1" fill="#e9eef2" stroke="#9aa4ae"/><rect x="91" y="185" width="7" height="11" fill="#c0392b" fill-opacity=".85"/><rect x="102" y="183" width="11" height="15" rx="1" fill="#e9eef2" stroke="#9aa4ae"/><rect x="104" y="185" width="7" height="11" fill="#e6c229" fill-opacity=".85"/><rect x="89" y="201" width="11" height="15" rx="1" fill="#e9eef2" stroke="#9aa4ae"/><rect x="91" y="203" width="7" height="11" fill="#6aa84f" fill-opacity=".85"/><rect x="102" y="201" width="11" height="15" rx="1" fill="#e9eef2" stroke="#9aa4ae"/><rect x="104" y="203" width="7" height="11" fill="#f2e6cf" fill-opacity=".85"/><rect x="8" y="232" width="104" height="16" fill="url(#g53)" stroke="#8c96a1"/><rect x="13" y="235" width="20" height="10" rx="2" fill="#f5b54a" fill-opacity=".35" stroke="#c98a2a" stroke-width=".6"/><rect x="38" y="235" width="20" height="10" rx="2" fill="#f5b54a" fill-opacity=".35" stroke="#c98a2a" stroke-width=".6"/><rect x="63" y="235" width="20" height="10" rx="2" fill="#f5b54a" fill-opacity=".35" stroke="#c98a2a" stroke-width=".6"/><rect x="88" y="235" width="20" height="10" rx="2" fill="#f5b54a" fill-opacity=".35" stroke="#c98a2a" stroke-width=".6"/></svg>
