<svg xmlns="http://www.w3.org/2000/svg" viewBox="0 0 100 100"><defs><filter id="sh" x="-20%" y="-20%" width="140%" height="140%"><feGaussianBlur in="SourceAlpha" stdDeviation="1.2"/><feOffset dx="1" dy="1.6"/><feComponentTransfer><feFuncA type="linear" slope="0.35"/></feComponentTransfer></filter><linearGradient id="g4n" gradientUnits="userSpaceOnUse" x1="50" y1="50" x2="50" y2="5.65"><stop offset="0" stop-color="#eee6d2"/><stop offset="1" stop-color="#dfd6c3"/></linearGradient><linearGradient id="g4o" gradientUnits="userSpaceOnUse" x1="50" y1="50" x2="81.36" y2="18.64"><stop offset="0" stop-color="#ede4cf"/><stop offset="1" stop-color="#ded4c0"/></linearGradient><linearGradient id="g4p" gradientUnits="userSpaceOnUse" x1="50" y1="50" x2="94.35" y2="50"><stop offset="0" stop-color="#dfd7c3"/><stop offset="1" stop-color="#d0c7b4"/></linearGradient><linearGradient id="g4q" gradientUnits="userSpaceOnUse" x1="50" y1="50" x2="81.36" y2="81.36"><stop offset="0" stop-color="#d9d1be"/><stop offset="1" stop-color="#cac2af"/></linearGradient><linearGradient id="g4r" gradientUnits="userSpaceOnUse" x1="50" y1="50" x2="50" y2="94.35"><stop offset="0" stop-color="#dfd7c3"/><stop offset="1" stop-color="#d0c7b4"/></linearGradient><linearGradient id="g4s" gradientUnits="userSpaceOnUse" x1="50" y1="50" x2="18.64" y2="81.36"><stop offset="0" stop-color="#ede4cf"/><stop offset="1" stop-color="#ded4c0"/></linearGradient><linearGradient id="g4t" gradientUnits="userSpaceOnUse" x1="50" y1="50" x2="5.65" y2="50"><stop offset="0" stop-color="#eee6d2"/><stop offset="1" stop-color="#dfd6c3"/></linearGradient><linearGradient id="g4u" gradientUnits="userSpaceOnUse" x1="50" y1="50" x2="18.64" y2="18.64"><stop offset="0" stop-color="#efe7d4"/><stop offset="1" stop-color="#e0d7c4"/></linearGradient><radialGradient id="g4v" cx=".35" cy=".3" r=".75"><stop offset="0" stop-color="#c89a6a"/><stop offset="0.7" stop-color="#7a5431"/><stop offset="1" stop-color="#4d321b"/></radialGradient></defs><path d="M50 50L31.63 5.65Q50 7.87 68.37 5.65Z" fill="url(#g4n)"/><path d="M33.47 10.09L66.53 10.09" stroke="#8c7a5a" stroke-opacity=".45" stroke-width=".35" stroke-dasharray="1 .8"/><path d="M31.63 5.65Q50 7.87 68.37 5.65" fill="none" stroke="#bdac89" stroke-width="2.2"/><path d="M50 50L68.37 5.65Q79.79 20.21 94.35 31.63Z" fill="url(#g4o)"/><path d="M66.53 10.09L89.91 33.47" stroke="#8c7a5a" stroke-opacity=".45" stroke-width=".35" stroke-dasharray="1 .8"/><path d="M68.37 5.65Q79.79 20.21 94.35 31.63" fill="none" stroke="#b8a680" stroke-width="2.2"/><path d="M50 50L94.35 31.63Q92.13 50 94.35 68.37Z" fill="url(#g4p)"/><path d="M89.91 33.47L89.91 66.53" stroke="#8c7a5a" stroke-opacity=".45" stroke-width=".35" stroke-dasharray="1 .8"/><path d="M94.35 31.63Q92.13 50 94.35 68.37" fill="none" stroke="#ab9a77" stroke-width="2.2"/><path d="M50 50L94.35 68.37Q79.79 79.79 68.37 94.35Z" fill="url(#g4q)"/><path d="M89.91 66.53L66.53 89.91" stroke="#8c7a5a" stroke-opacity=".45" stroke-width=".35" stroke-dasharray="1 .8"/><path d="M94.35 68.37Q79.79 79.79 68.37 94.35" fill="none" stroke="#a69573" stroke-width="2.2"/><path d="M50 50L68.37 94.35Q50 92.13 31.63 94.35Z" fill="url(#g4r)"/><path d="M66.53 89.91L33.47 89.91" stroke="#8c7a5a" stroke-opacity=".45" stroke-width=".35" stroke-dasharray="1 .8"/><path d="M68.37 94.35Q50 92.13 31.63 94.35" fill="none" stroke="#ab9a77" stroke-width="2.2"/><path d="M50 50L31.63 94.35Q20.21 79.79 5.65 68.37Z" fill="url(#g4s)"/><path d="M33.47 89.91L10.09 66.53" stroke="#8c7a5a" stroke-opacity=".45" stroke-width=".35" stroke-dasharray="1 .8"/><path d="M31.63 94.35Q20.21 79.79 5.65 68.37" fill="none" stroke="#b8a680" stroke-width="2.2"/><path d="M50 50L5.65 68.37Q7.87 50 5.65 31.63Z" fill="url(#g4t)"/><path d="M10.09 66.53L10.09 33.47" stroke="#8c7a5a" stroke-opacity=".45" stroke-width=".35" stroke-dasharray="1 .8"/><path d="M5.65 68.37Q7.87 50 5.65 31.63" fill="none" stroke="#bdac89" stroke-width="2.2"/><path d="M50 50L5.65 31.63Q20.21 20.21 31.63 5.65Z" fill="url(#g4u)"/><path d="M10.09 33.47L33.47 10.09" stroke="#8c7a5a" stroke-opacity=".45" stroke-width=".35" stroke-dasharray="1 .8"/><path d="M5.65 31.63Q20.21 20.21 31.63 5.65" fill="none" stroke="#bfaf8d" stroke-width="2.2"/><path d="M50 50L31.63 5.65" stroke="#a8966f" stroke-width=".9"/><path d="M50 50L31.63 5.65" stroke="#fff" stroke-opacity=".35" stroke-width=".3" transform="translate(-.4 -.4)"/><circle cx="31.63" cy="5.65" r="1.1" fill="#7a6545"/><path d="M50 50L68.37 5.65" stroke="#a8966f" stroke-width=".9"/><path d="M50 50L68.37 5.65" stroke="#fff" stroke-opacity=".35" stroke-width=".3" transform="translate(-.4 -.4)"/><circle cx="68.37" cy="5.65" r="1.1" fill="#7a6545"/><path d="M50 50L94.35 31.63" stroke="#a8966f" stroke-width=".9"/><path d="M50 50L94.35 31.63" stroke="#fff" stroke-opacity=".35" stroke-width=".3" transform="translate(-.4 -.4)"/><circle cx="94.35" cy="31.63" r="1.1" fill="#7a6545"/><path d="M50 50L94.35 68.37" stroke="#a8966f" stroke-width=".9"/><path d="M50 50L94.35 68.37" stroke="#fff" stroke-opacity=".35" stroke-width=".3" transform="translate(-.4 -.4)"/><circle cx="94.35" cy="68.37" r="1.1" fill="#7a6545"/><path d="M50 50L68.37 94.35" stroke="#a8966f" stroke-width=".9"/><path d="M50 50L68.37 94.35" stroke="#fff" stroke-opacity=".35" stroke-width=".3" transform="translate(-.4 -.4)"/><circle cx="68.37" cy="94.35" r="1.1" fill="#7a6545"/><path d="M50 50L31.63 94.35" stroke="#a8966f" stroke-width=".9"/><path d="M50 50L31.63 94.35" stroke="#fff" stroke-opacity=".35" stroke-width=".3" transform="translate(-.4 -.4)"/><circle cx="31.63" cy="94.35" r="1.1" fill="#7a6545"/><path d="M50 50L5.65 68.37" stroke="#a8966f" stroke-width=".9"/><path d="M50 50L5.65 68.37" stroke="#fff" stroke-opacity=".35" stroke-width=".3" transform="translate(-.4 -.4)"/><circle cx="5.65" cy="68.37" r="1.1" fill="#7a6545"/><path d="M50 50L5.65 31.63" stroke="#a8966f" stroke-width=".9"/><path d="M50 50L5.65 31.63" stroke="#fff" stroke-opacity=".35" stroke-width=".3" transform="translate(-.4 -.4)"/><circle cx="5.65" cy="31.63" r="1.1" fill="#7a6545"/><path d="M45.79 39.84L54.21 39.84L60.16 45.79L60.16 54.21L54.21 60.16L45.79 60.16L39.84 54.21L39.84 45.79Z" fill="#ece2cc" stroke="#b8a680" stroke-width="1" filter="url(#sh)"/><path d="M45.79 39.84L54.21 39.84L60.16 45.79L60.16 54.21L54.21 60.16L45.79 60.16L39.84 54.21L39.84 45.79Z" fill="#ede3cf" stroke="#b8a680" stroke-width="1"/><circle cx="50" cy="50" r="3.6" fill="url(#g4v)"/><circle cx="48.9" cy="48.8" r="1" fill="#fff" fill-opacity=".45"/></svg>
