<svg xmlns="http://www.w3.org/2000/svg" viewBox="0 0 200 110"><defs><filter id="s" x="-20%" y="-20%" width="140%" height="140%"><feGaussianBlur in="SourceAlpha" stdDeviation="1.4"/><feOffset dx="1.2" dy="2.2"/><feComponentTransfer><feFuncA type="linear" slope="0.42"/></feComponentTransfer><feMerge><feMergeNode/><feMergeNode in="SourceGraphic"/></feMerge></filter><filter id="n" x="0" y="0" width="100%" height="100%"><feTurbulence type="fractalNoise" baseFrequency="1.4" numOctaves="2" seed="4"/><feColorMatrix values="0 0 0 0 0  0 0 0 0 0  0 0 0 0 0  0 0 0 0.22 0"/><feComposite in2="SourceGraphic" operator="in"/></filter><radialGradient id="bs" cx=".38" cy=".35" r=".7"><stop offset=".45" stop-color="#000" stop-opacity="0"/><stop offset="1" stop-color="#000" stop-opacity=".45"/></radialGradient>
<linearGradient id="wood" x1="0" y1="0" x2="1" y2="1"><stop offset="0" stop-color="#7a4a2a"/><stop offset=".5" stop-color="#5a3219"/><stop offset="1" stop-color="#3f2210"/></linearGradient>
<radialGradient id="felt" cx=".5" cy=".5" r=".65"><stop offset="0" stop-color="#1f8a5b"/><stop offset=".75" stop-color="#15714a"/><stop offset="1" stop-color="#0e5537"/></radialGradient>
<linearGradient id="cue" x1="0" y1="0" x2="1" y2="0"><stop offset="0" stop-color="#1a1a1a"/><stop offset=".3" stop-color="#3a2414"/><stop offset=".32" stop-color="#e9d6a8"/><stop offset=".97" stop-color="#e3cf9e"/><stop offset=".98" stop-color="#f4f4f4"/><stop offset="1" stop-color="#3a6ea5"/></linearGradient></defs>
<g filter="url(#s)"><rect x="1" y="1" width="198" height="108" rx="9" fill="url(#wood)"/><path d="M6 3H194" stroke="#2a150a" stroke-opacity=".25" stroke-width=".3"/><path d="M6 107H194" stroke="#2a150a" stroke-opacity=".25" stroke-width=".3"/><path d="M6 3.9H194" stroke="#2a150a" stroke-opacity=".25" stroke-width=".3"/><path d="M6 106.1H194" stroke="#2a150a" stroke-opacity=".25" stroke-width=".3"/><path d="M6 4.8H194" stroke="#2a150a" stroke-opacity=".25" stroke-width=".3"/><path d="M6 105.2H194" stroke="#2a150a" stroke-opacity=".25" stroke-width=".3"/><path d="M6 5.7H194" stroke="#2a150a" stroke-opacity=".25" stroke-width=".3"/><path d="M6 104.3H194" stroke="#2a150a" stroke-opacity=".25" stroke-width=".3"/><path d="M6 6.6H194" stroke="#2a150a" stroke-opacity=".25" stroke-width=".3"/><path d="M6 103.4H194" stroke="#2a150a" stroke-opacity=".25" stroke-width=".3"/><path d="M6 7.5H194" stroke="#2a150a" stroke-opacity=".25" stroke-width=".3"/><path d="M6 102.5H194" stroke="#2a150a" stroke-opacity=".25" stroke-width=".3"/><path d="M6 8.4H194" stroke="#2a150a" stroke-opacity=".25" stroke-width=".3"/><path d="M6 101.6H194" stroke="#2a150a" stroke-opacity=".25" stroke-width=".3"/><path d="M6 9.3H194" stroke="#2a150a" stroke-opacity=".25" stroke-width=".3"/><path d="M6 100.7H194" stroke="#2a150a" stroke-opacity=".25" stroke-width=".3"/><rect x="3" y="3" width="194" height="104" rx="7" fill="none" stroke="#fff" stroke-opacity=".12"/></g><rect x="11" y="11" width="178" height="88" rx="2" fill="#0b4a30"/><rect x="14" y="14" width="172" height="82" fill="url(#felt)"/><rect x="14" y="14" width="172" height="82" fill="#0f6b44" filter="url(#n)"/><rect x="14" y="14" width="172" height="82" fill="none" stroke="#000" stroke-opacity=".35" stroke-width="2"/><path d="M58 15V95" stroke="#fff" stroke-opacity=".25" stroke-width=".5"/><circle cx="58" cy="55" r=".9" fill="#fff" fill-opacity=".5"/><circle cx="142" cy="55" r=".9" fill="#fff" fill-opacity=".5"/><path d="M37 5.2L38.1 6.5L37 7.8L35.9 6.5Z" fill="#f3ead2"/><path d="M37 102.2L38.1 103.5L37 104.8L35.9 103.5Z" fill="#f3ead2"/><path d="M60 5.2L61.1 6.5L60 7.8L58.9 6.5Z" fill="#f3ead2"/><path d="M60 102.2L61.1 103.5L60 104.8L58.9 103.5Z" fill="#f3ead2"/><path d="M83 5.2L84.1 6.5L83 7.8L81.9 6.5Z" fill="#f3ead2"/><path d="M83 102.2L84.1 103.5L83 104.8L81.9 103.5Z" fill="#f3ead2"/><path d="M117 5.2L118.1 6.5L117 7.8L115.9 6.5Z" fill="#f3ead2"/><path d="M117 102.2L118.1 103.5L117 104.8L115.9 103.5Z" fill="#f3ead2"/><path d="M140 5.2L141.1 6.5L140 7.8L138.9 6.5Z" fill="#f3ead2"/><path d="M140 102.2L141.1 103.5L140 104.8L138.9 103.5Z" fill="#f3ead2"/><path d="M163 5.2L164.1 6.5L163 7.8L161.9 6.5Z" fill="#f3ead2"/><path d="M163 102.2L164.1 103.5L163 104.8L161.9 103.5Z" fill="#f3ead2"/><path d="M6.5 30.7L7.6 32L6.5 33.3L5.4 32Z" fill="#f3ead2"/><path d="M193.5 30.7L194.6 32L193.5 33.3L192.4 32Z" fill="#f3ead2"/><path d="M6.5 53.7L7.6 55L6.5 56.3L5.4 55Z" fill="#f3ead2"/><path d="M193.5 53.7L194.6 55L193.5 56.3L192.4 55Z" fill="#f3ead2"/><path d="M6.5 76.7L7.6 78L6.5 79.3L5.4 78Z" fill="#f3ead2"/><path d="M193.5 76.7L194.6 78L193.5 79.3L192.4 78Z" fill="#f3ead2"/><circle cx="13" cy="13" r="6" fill="#2a1a10"/><circle cx="13" cy="13" r="4.6" fill="#050505"/><path d="M10 11A4 4 0 0 1 15 9.6" stroke="#fff" stroke-opacity=".15" stroke-width=".6" fill="none"/><circle cx="100" cy="11" r="6" fill="#2a1a10"/><circle cx="100" cy="11" r="4.6" fill="#050505"/><path d="M97 9A4 4 0 0 1 102 7.6" stroke="#fff" stroke-opacity=".15" stroke-width=".6" fill="none"/><circle cx="187" cy="13" r="6" fill="#2a1a10"/><circle cx="187" cy="13" r="4.6" fill="#050505"/><path d="M184 11A4 4 0 0 1 189 9.6" stroke="#fff" stroke-opacity=".15" stroke-width=".6" fill="none"/><circle cx="13" cy="97" r="6" fill="#2a1a10"/><circle cx="13" cy="97" r="4.6" fill="#050505"/><path d="M10 95A4 4 0 0 1 15 93.6" stroke="#fff" stroke-opacity=".15" stroke-width=".6" fill="none"/><circle cx="100" cy="99" r="6" fill="#2a1a10"/><circle cx="100" cy="99" r="4.6" fill="#050505"/><path d="M97 97A4 4 0 0 1 102 95.6" stroke="#fff" stroke-opacity=".15" stroke-width=".6" fill="none"/><circle cx="187" cy="97" r="6" fill="#2a1a10"/><circle cx="187" cy="97" r="4.6" fill="#050505"/><path d="M184 95A4 4 0 0 1 189 93.6" stroke="#fff" stroke-opacity=".15" stroke-width=".6" fill="none"/><circle cx="142" cy="55" r="3.1" fill="#f2c014"/><circle cx="142" cy="55" r="3.1" fill="url(#bs)"/><circle cx="140.91" cy="53.82" r="0.87" fill="#fff" fill-opacity=".85"/><circle cx="147.43" cy="51.87" r="3.1" fill="#1f4fb5"/><circle cx="147.43" cy="51.87" r="3.1" fill="url(#bs)"/><circle cx="146.34" cy="50.69" r="0.87" fill="#fff" fill-opacity=".85"/><circle cx="147.43" cy="58.13" r="3.1" fill="#d6281f"/><circle cx="147.43" cy="58.13" r="3.1" fill="url(#bs)"/><circle cx="146.34" cy="56.95" r="0.87" fill="#fff" fill-opacity=".85"/><circle cx="152.85" cy="48.74" r="3.1" fill="#5b2c86"/><circle cx="152.85" cy="48.74" r="3.1" fill="url(#bs)"/><circle cx="151.76" cy="47.56" r="0.87" fill="#fff" fill-opacity=".85"/><circle cx="152.85" cy="55" r="3.1" fill="#ef6c1a"/><circle cx="152.85" cy="55" r="3.1" fill="url(#bs)"/><circle cx="151.76" cy="53.82" r="0.87" fill="#fff" fill-opacity=".85"/><circle cx="152.85" cy="61.26" r="3.1" fill="#1d7a3a"/><circle cx="152.85" cy="61.26" r="3.1" fill="url(#bs)"/><circle cx="151.76" cy="60.08" r="0.87" fill="#fff" fill-opacity=".85"/><circle cx="158.28" cy="45.61" r="3.1" fill="#7a1f1f"/><circle cx="158.28" cy="45.61" r="3.1" fill="url(#bs)"/><circle cx="157.19" cy="44.43" r="0.87" fill="#fff" fill-opacity=".85"/><circle cx="158.28" cy="51.87" r="3.1" fill="#111111"/><circle cx="158.28" cy="51.87" r="3.1" fill="url(#bs)"/><circle cx="157.19" cy="50.69" r="0.87" fill="#fff" fill-opacity=".85"/><circle cx="158.28" cy="58.13" r="3.1" fill="#f8f5ec"/><path d="M155.18 58.13A3.1 3.1 0 0 1 161.38 58.13" fill="none" stroke="#f2c014" stroke-width="2.94" transform="rotate(16 158.28 58.13)"/><circle cx="158.28" cy="58.13" r="3.1" fill="url(#bs)"/><circle cx="157.19" cy="56.95" r="0.87" fill="#fff" fill-opacity=".85"/><circle cx="158.28" cy="64.39" r="3.1" fill="#f8f5ec"/><path d="M155.18 64.39A3.1 3.1 0 0 1 161.38 64.39" fill="none" stroke="#1f4fb5" stroke-width="2.94" transform="rotate(84 158.28 64.39)"/><circle cx="158.28" cy="64.39" r="3.1" fill="url(#bs)"/><circle cx="157.19" cy="63.22" r="0.87" fill="#fff" fill-opacity=".85"/><circle cx="163.7" cy="42.48" r="3.1" fill="#f8f5ec"/><path d="M160.6 42.48A3.1 3.1 0 0 1 166.8 42.48" fill="none" stroke="#d6281f" stroke-width="2.94" transform="rotate(44 163.7 42.48)"/><circle cx="163.7" cy="42.48" r="3.1" fill="url(#bs)"/><circle cx="162.61" cy="41.3" r="0.87" fill="#fff" fill-opacity=".85"/><circle cx="163.7" cy="48.74" r="3.1" fill="#f8f5ec"/><path d="M160.6 48.74A3.1 3.1 0 0 1 166.8 48.74" fill="none" stroke="#5b2c86" stroke-width="2.94" transform="rotate(113 163.7 48.74)"/><circle cx="163.7" cy="48.74" r="3.1" fill="url(#bs)"/><circle cx="162.61" cy="47.56" r="0.87" fill="#fff" fill-opacity=".85"/><circle cx="163.7" cy="55" r="3.1" fill="#f8f5ec"/><path d="M160.6 55A3.1 3.1 0 0 1 166.8 55" fill="none" stroke="#ef6c1a" stroke-width="2.94" transform="rotate(2 163.7 55)"/><circle cx="163.7" cy="55" r="3.1" fill="url(#bs)"/><circle cx="162.61" cy="53.82" r="0.87" fill="#fff" fill-opacity=".85"/><circle cx="163.7" cy="61.26" r="3.1" fill="#f8f5ec"/><path d="M160.6 61.26A3.1 3.1 0 0 1 166.8 61.26" fill="none" stroke="#1d7a3a" stroke-width="2.94" transform="rotate(71 163.7 61.26)"/><circle cx="163.7" cy="61.26" r="3.1" fill="url(#bs)"/><circle cx="162.61" cy="60.08" r="0.87" fill="#fff" fill-opacity=".85"/><circle cx="163.7" cy="67.52" r="3.1" fill="#f8f5ec"/><path d="M160.6 67.52A3.1 3.1 0 0 1 166.8 67.52" fill="none" stroke="#7a1f1f" stroke-width="2.94" transform="rotate(140 163.7 67.52)"/><circle cx="163.7" cy="67.52" r="3.1" fill="url(#bs)"/><circle cx="162.61" cy="66.35" r="0.87" fill="#fff" fill-opacity=".85"/><circle cx="52" cy="61" r="3.1" fill="#f7f4ea"/><circle cx="52" cy="61" r="3.1" fill="url(#bs)"/><circle cx="50.91" cy="59.82" r="0.87" fill="#fff" fill-opacity=".85"/><g transform="rotate(-9 90 80)"><rect x="24" y="78.6" width="120" height="2.6" rx="1.3" fill="url(#cue)"/><rect x="24" y="78.6" width="120" height="1" rx=".5" fill="#fff" fill-opacity=".25"/></g><rect x="96" y="3.2" width="4.6" height="4.6" rx=".6" fill="#3b7fd0" stroke="#1e4f8a" stroke-width=".4"/><rect x="97.3" y="4.5" width="2" height="2" fill="#6aa6e8"/></svg>
