<svg xmlns="http://www.w3.org/2000/svg" viewBox="0 0 160 120"><defs><pattern id="t" width="10" height="10" patternUnits="userSpaceOnUse"><rect width="10" height="10" fill="#eef1f4"/><path d="M0 0H10V10" fill="none" stroke="#cfd6dd" stroke-width=".6"/></pattern></defs><rect width="160" height="120" fill="url(#t)"/><rect x="78" y="0" width="4" height="120" fill="#3b4049"/><g transform="translate(16 2)"><rect x="-9" y="0" width="18" height="7" rx="1.5" fill="#fff" stroke="#9aa3ad"/><path d="M-7.5 7Q-8 23 0 24Q8 23 7.5 7Z" fill="#fff" stroke="#9aa3ad"/><path d="M-5 9Q-5.5 20 0 21Q5.5 20 5 9Z" fill="#dfe8ef" stroke="#b5bfc8" stroke-width=".6"/></g><path d="M32 0V38" stroke="#3b4049" stroke-width="1.6"/><g transform="translate(48 2)"><rect x="-9" y="0" width="18" height="7" rx="1.5" fill="#fff" stroke="#9aa3ad"/><path d="M-7.5 7Q-8 23 0 24Q8 23 7.5 7Z" fill="#fff" stroke="#9aa3ad"/><path d="M-5 9Q-5.5 20 0 21Q5.5 20 5 9Z" fill="#dfe8ef" stroke="#b5bfc8" stroke-width=".6"/></g><path d="M64 0V38" stroke="#3b4049" stroke-width="1.6"/><path d="M0 38H78" stroke="#3b4049" stroke-width="1.2" stroke-dasharray="0"/><path d="M4 38A12 12 0 0 1 16 50M36 38A12 12 0 0 1 48 50" stroke="#5d646c" stroke-width=".6" stroke-dasharray="2 1.5" fill="none"/><g transform="translate(2 64)"><rect x="-1" y="-11" width="12" height="22" fill="#d9d2c4" stroke="#a89f8f"/><ellipse cx="5.5" cy="0" rx="4" ry="6.5" fill="#fff" stroke="#9aa3ad"/><circle cx="1.6" cy="0" r="1" fill="#8b949d"/></g><g transform="translate(2 86)"><rect x="-1" y="-11" width="12" height="22" fill="#d9d2c4" stroke="#a89f8f"/><ellipse cx="5.5" cy="0" rx="4" ry="6.5" fill="#fff" stroke="#9aa3ad"/><circle cx="1.6" cy="0" r="1" fill="#8b949d"/></g><rect x="28" y="116" width="26" height="4" fill="#eef1f4"/><path d="M30 118L30 96M30 96A22 22 0 0 1 52 118" stroke="#5d646c" stroke-width=".9" fill="none"/><path d="M30 96A22 22 0 0 1 52 118" stroke="#5d646c" stroke-width=".6" stroke-dasharray="2 1.5" fill="none"/><g transform="translate(98 2)"><rect x="-9" y="0" width="18" height="7" rx="1.5" fill="#fff" stroke="#9aa3ad"/><path d="M-7.5 7Q-8 23 0 24Q8 23 7.5 7Z" fill="#fff" stroke="#9aa3ad"/><path d="M-5 9Q-5.5 20 0 21Q5.5 20 5 9Z" fill="#dfe8ef" stroke="#b5bfc8" stroke-width=".6"/></g><path d="M114 0V38" stroke="#3b4049" stroke-width="1.6"/><g transform="translate(130 2)"><rect x="-9" y="0" width="18" height="7" rx="1.5" fill="#fff" stroke="#9aa3ad"/><path d="M-7.5 7Q-8 23 0 24Q8 23 7.5 7Z" fill="#fff" stroke="#9aa3ad"/><path d="M-5 9Q-5.5 20 0 21Q5.5 20 5 9Z" fill="#dfe8ef" stroke="#b5bfc8" stroke-width=".6"/></g><path d="M146 0V38" stroke="#3b4049" stroke-width="1.6"/><path d="M82 38H160" stroke="#3b4049" stroke-width="1.2" stroke-dasharray="0"/><path d="M86 38A12 12 0 0 1 98 50M118 38A12 12 0 0 1 130 50" stroke="#5d646c" stroke-width=".6" stroke-dasharray="2 1.5" fill="none"/><g transform="translate(147 64)"><rect x="-1" y="-11" width="12" height="22" fill="#d9d2c4" stroke="#a89f8f"/><ellipse cx="5.5" cy="0" rx="4" ry="6.5" fill="#fff" stroke="#9aa3ad"/><circle cx="1.6" cy="0" r="1" fill="#8b949d"/></g><g transform="translate(147 86)"><rect x="-1" y="-11" width="12" height="22" fill="#d9d2c4" stroke="#a89f8f"/><ellipse cx="5.5" cy="0" rx="4" ry="6.5" fill="#fff" stroke="#9aa3ad"/><circle cx="1.6" cy="0" r="1" fill="#8b949d"/></g><rect x="110" y="116" width="26" height="4" fill="#eef1f4"/><path d="M112 118L112 96M112 96A22 22 0 0 1 134 118" stroke="#5d646c" stroke-width=".9" fill="none"/><path d="M112 96A22 22 0 0 1 134 118" stroke="#5d646c" stroke-width=".6" stroke-dasharray="2 1.5" fill="none"/><g fill="#4e5761"><circle cx="45" cy="70" r="3"/><rect x="41.5" y="74" width="7" height="10" rx="1.5"/><rect x="42" y="83" width="2.6" height="8" rx="1"/><rect x="45.4" y="83" width="2.6" height="8" rx="1"/><circle cx="115" cy="70" r="3"/><path d="M115 74L120.5 86H109.5Z"/><rect x="112.2" y="85" width="2.4" height="6" rx="1"/><rect x="115.4" y="85" width="2.4" height="6" rx="1"/></g></svg>
