<svg xmlns="http://www.w3.org/2000/svg" viewBox="0 0 180 60"><defs><filter id="s" x="-20%" y="-20%" width="140%" height="140%"><feGaussianBlur in="SourceAlpha" stdDeviation="1.6"/><feOffset dx="1.2" dy="2.4"/><feComponentTransfer><feFuncA type="linear" slope="0.4"/></feComponentTransfer><feMerge><feMergeNode/><feMergeNode in="SourceGraphic"/></feMerge></filter><radialGradient id="f" cx=".4" cy=".3" r=".85"><stop offset="0" stop-color="#6e8f8c"/><stop offset=".65" stop-color="#4c6b68"/><stop offset="1" stop-color="#2f4a48"/></radialGradient><radialGradient id="c" cx=".4" cy=".3" r=".85"><stop offset="0" stop-color="#7fa29e"/><stop offset=".65" stop-color="#57807b"/><stop offset="1" stop-color="#3b5c58"/></radialGradient><radialGradient id="p" cx=".4" cy=".3" r=".85"><stop offset="0" stop-color="#e6c78e"/><stop offset=".65" stop-color="#c89b4f"/><stop offset="1" stop-color="#8a6422"/></radialGradient><radialGradient id="q" cx=".4" cy=".3" r=".85"><stop offset="0" stop-color="#e9e4da"/><stop offset=".65" stop-color="#cfc6b6"/><stop offset="1" stop-color="#9c9281"/></radialGradient></defs><g filter="url(#s)"><rect x="2" y="2" width="176" height="56" rx="10" fill="url(#f)"/><rect x="2" y="2" width="176" height="15" rx="8" fill="#000" fill-opacity=".12"/><rect x="2" y="6" width="18" height="52" rx="8" fill="url(#f)" stroke="#27403e" stroke-width=".6"/><rect x="160" y="6" width="18" height="52" rx="8" fill="url(#f)" stroke="#27403e" stroke-width=".6"/><rect x="21" y="17" width="45.3" height="38" rx="6" fill="url(#c)" stroke="#2f4a48" stroke-width=".7"/><rect x="24" y="20" width="39.3" height="32" rx="4.5" fill="none" stroke="#fff" stroke-opacity=".25" stroke-width=".5" stroke-dasharray="1.4 1"/><rect x="67.3" y="17" width="45.3" height="38" rx="6" fill="url(#c)" stroke="#2f4a48" stroke-width=".7"/><rect x="70.3" y="20" width="39.3" height="32" rx="4.5" fill="none" stroke="#fff" stroke-opacity=".25" stroke-width=".5" stroke-dasharray="1.4 1"/><rect x="113.6" y="17" width="45.3" height="38" rx="6" fill="url(#c)" stroke="#2f4a48" stroke-width=".7"/><rect x="116.6" y="20" width="39.3" height="32" rx="4.5" fill="none" stroke="#fff" stroke-opacity=".25" stroke-width=".5" stroke-dasharray="1.4 1"/><rect x="24" y="8" width="30" height="16" rx="5" fill="url(#p)" transform="rotate(-8 39 16)"/><rect x="126" y="8" width="30" height="16" rx="5" fill="url(#q)" transform="rotate(7 141 16)"/></g></svg>
