<svg xmlns="http://www.w3.org/2000/svg" viewBox="0 0 100 14" preserveAspectRatio="none"><defs><linearGradient id="t" x1="0" y1="0" x2="0" y2="1"><stop offset="0" stop-color="#e8d2ad"/><stop offset=".15" stop-color="#d6b98c"/><stop offset="1" stop-color="#c9a877"/></linearGradient><linearGradient id="r" x1="0" y1="0" x2="0" y2="1"><stop offset="0" stop-color="#5e4630"/><stop offset="1" stop-color="#8f7454"/></linearGradient></defs>
<rect width="100" height="12" fill="url(#t)"/><path d="M0 2.5Q30 2.03 60 2.8T100 2.13" stroke="#8a6440" stroke-opacity="0.31" stroke-width=".35" fill="none" vector-effect="non-scaling-stroke"/><path d="M0 10.27Q30 10.15 60 9.87T100 9.88" stroke="#8a6440" stroke-opacity="0.23" stroke-width=".35" fill="none" vector-effect="non-scaling-stroke"/><path d="M0 6.11Q30 6.37 60 6.09T100 5.92" stroke="#8a6440" stroke-opacity="0.25" stroke-width=".35" fill="none" vector-effect="non-scaling-stroke"/><path d="M0 8.64Q30 7.95 60 8.21T100 8.59" stroke="#8a6440" stroke-opacity="0.27" stroke-width=".35" fill="none" vector-effect="non-scaling-stroke"/><path d="M0 8.56Q30 8.08 60 8.36T100 8.43" stroke="#8a6440" stroke-opacity="0.27" stroke-width=".35" fill="none" vector-effect="non-scaling-stroke"/><path d="M0 8.44Q30 8.93 60 8.82T100 8.68" stroke="#8a6440" stroke-opacity="0.21" stroke-width=".35" fill="none" vector-effect="non-scaling-stroke"/><rect y="0" width="100" height="1.1" fill="#fff" fill-opacity=".55"/><rect y="12" width="100" height="2" fill="url(#r)"/></svg>
